<?xml version="1.0" encoding="UTF-8"?>
<svg xmlns="http://www.w3.org/2000/svg" xmlns:xlink="http://www.w3.org/1999/xlink" width="31px" height="31px" viewBox="0 0 31 31" version="1.1">
<g id="surface1">
<path style=" stroke:none;fill-rule:nonzero;fill:rgb(88.627452%,89.019608%,89.803922%);fill-opacity:1;" d="M 31 15.5 C 31 23.421875 24.570312 29.851562 16.648438 29.851562 C 8.726562 29.851562 2.296875 23.421875 2.296875 15.5 C 2.296875 7.578125 8.726562 1.148438 16.648438 1.148438 C 24.570312 1.148438 31 7.578125 31 15.5 "/>
<path style=" stroke:none;fill-rule:nonzero;fill:rgb(80.000001%,80.000001%,80.000001%);fill-opacity:1;" d="M 29.277344 15.5 C 29.277344 23.421875 22.847656 29.851562 14.925781 29.851562 C 7.003906 29.851562 0.574219 23.421875 0.574219 15.5 C 0.574219 7.578125 7.003906 1.148438 14.925781 1.148438 C 22.847656 1.148438 29.277344 7.578125 29.277344 15.5 "/>
<path style=" stroke:none;fill-rule:nonzero;fill:rgb(88.627452%,89.019608%,89.803922%);fill-opacity:1;" d="M 27.554688 15.5 C 27.554688 23.421875 21.929688 29.851562 14.925781 29.851562 C 7.921875 29.851562 2.296875 23.421875 2.296875 15.5 C 2.296875 7.578125 7.980469 1.148438 14.925781 1.148438 C 21.871094 1.148438 27.554688 7.578125 27.554688 15.5 "/>
<path style=" stroke:none;fill-rule:nonzero;fill:rgb(100%,100%,100%);fill-opacity:1;" d="M 2.296875 15.5 C 2.296875 7.578125 7.980469 1.148438 14.925781 1.148438 C 7.003906 1.148438 0.574219 7.578125 0.574219 15.5 C 0.574219 23.421875 7.003906 29.851562 14.925781 29.851562 C 7.980469 29.851562 2.296875 23.421875 2.296875 15.5 "/>
<path style=" stroke:none;fill-rule:nonzero;fill:rgb(71.372551%,71.372551%,71.372551%);fill-opacity:1;" d="M 14.925781 30.425781 C 6.714844 30.425781 0 23.710938 0 15.5 C 0 7.289062 6.714844 0.574219 14.925781 0.574219 C 23.136719 0.574219 29.851562 7.289062 29.851562 15.5 C 29.851562 23.710938 23.136719 30.425781 14.925781 30.425781 Z M 14.925781 1.722656 C 7.347656 1.722656 1.148438 7.921875 1.148438 15.5 C 1.148438 23.078125 7.347656 29.277344 14.925781 29.277344 C 22.503906 29.277344 28.703125 23.078125 28.703125 15.5 C 28.703125 7.921875 22.503906 1.722656 14.925781 1.722656 Z M 14.925781 1.722656 "/>
<path style=" stroke:none;fill-rule:nonzero;fill:rgb(71.372551%,71.372551%,71.372551%);fill-opacity:1;" d="M 14.925781 20.09375 C 14.582031 20.09375 14.351562 19.863281 14.351562 19.519531 L 14.351562 6.890625 C 14.351562 6.542969 14.582031 6.316406 14.925781 6.316406 C 15.269531 6.316406 15.5 6.542969 15.5 6.890625 L 15.5 19.519531 C 15.5 19.863281 15.269531 20.09375 14.925781 20.09375 Z M 14.925781 20.09375 "/>
<path style=" stroke:none;fill-rule:nonzero;fill:rgb(71.372551%,71.372551%,71.372551%);fill-opacity:1;" d="M 14.925781 24.109375 C 14.582031 24.109375 14.351562 23.882812 14.351562 23.535156 L 14.351562 22.390625 C 14.351562 22.042969 14.582031 21.816406 14.925781 21.816406 C 15.269531 21.816406 15.5 22.042969 15.5 22.390625 L 15.5 23.535156 C 15.5 23.882812 15.269531 24.109375 14.925781 24.109375 Z M 14.925781 24.109375 "/>
</g>
</svg>
